<?xml version="1.0" standalone="no"?>
<!DOCTYPE svg PUBLIC "-//W3C//DTD SVG 20010904//EN"
 "http://www.w3.org/TR/2001/REC-SVG-20010904/DTD/svg10.dtd">
<svg version="1.0" xmlns="http://www.w3.org/2000/svg"
 width="360.000000pt" height="360.000000pt" viewBox="0 0 360.000000 360.000000"
 preserveAspectRatio="xMidYMid meet">
<metadata>
Created by potrace 1.11, written by Peter Selinger 2001-2013
</metadata>
<g transform="translate(0.000000,360.000000) scale(0.100000,-0.100000)"
fill="#000000" stroke="none">
<path d="M1720 3198 c-116 -30 -212 -35 -682 -37 -275 -1 -499 -6 -520 -12
-109 -29 -117 -165 -10 -200 20 -6 43 -16 50 -22 20 -15 39 -57 46 -97 3 -19
8 -46 11 -60 19 -94 27 -563 12 -730 -11 -117 -31 -214 -50 -243 -8 -13 -40
-38 -70 -55 -61 -34 -70 -50 -61 -97 8 -44 36 -73 76 -79 18 -3 294 -7 613 -9
319 -2 591 -7 605 -10 14 -3 45 -8 70 -11 41 -4 47 -2 80 33 71 74 152 282
153 391 1 95 -45 155 -118 154 -55 0 -71 -14 -121 -106 -94 -172 -177 -212
-434 -211 -149 1 -184 14 -201 75 -7 24 -12 110 -13 196 l-1 154 29 25 c26 22
36 24 75 19 85 -12 120 -51 136 -155 10 -61 37 -85 87 -78 53 7 80 35 106 110
72 202 36 550 -60 594 -60 27 -132 -18 -143 -91 -4 -22 -9 -54 -11 -70 -10
-65 -42 -84 -127 -80 -83 4 -95 10 -107 54 -16 60 -5 303 15 334 25 38 76 50
208 48 198 -2 275 -33 351 -139 44 -63 82 -84 133 -72 49 11 80 43 93 100 21
88 0 197 -57 299 -40 72 -92 97 -163 78z"/>
<path d="M2738 2146 c-1 -2 -34 -6 -73 -9 -79 -7 -209 -38 -253 -61 -38 -20
-82 -71 -83 -99 -6 -81 15 -111 90 -134 31 -9 62 -21 69 -27 19 -13 43 -63 47
-95 22 -176 28 -784 8 -860 -35 -137 -162 -206 -245 -132 l-32 28 12 81 c7 44
10 93 6 109 -36 150 -215 234 -376 176 -103 -37 -170 -135 -173 -256 -5 -172
81 -302 256 -385 334 -158 762 -118 975 93 66 65 103 128 128 215 28 101 28
106 41 645 9 373 7 368 106 425 78 45 90 60 91 108 1 90 -69 132 -274 163 -68
10 -312 21 -320 15z"/>
</g>
</svg>
